<svg width="277" height="36" viewBox="0 0 277 36" fill="none" xmlns="http://www.w3.org/2000/svg">
<path d="M154.4 30.4016C154.9 30.8016 155.5 30.6016 156 30.8016C157.1 31.1016 158.3 31.2016 159.5 31.3016C160.9 31.3016 162.2 30.3016 162.4 28.9016C162.5 28.6016 162.7 28.5016 162.8 28.4016C164.8 27.0016 165.9 25.0016 166.6 22.7016C167.2 20.7016 167.3 18.7016 167.1 16.6016C167 15.4016 166.4 14.3016 165.8 13.3016C165.5 12.7016 165.3 12.0016 164.9 11.6016C163 9.8016 161 8.3016 158.4 7.8016C157 7.5016 155.7 7.5016 154.3 7.5016C152.3 7.5016 150.4 7.4016 148.4 7.4016C146.5 7.3016 144.7 7.5016 142.8 7.7016C141.2 7.9016 139.6 8.4016 138.1 9.3016C137.2 9.8016 136.3 10.2016 135.5 10.8016C134.2 11.9016 133.6 13.5016 133.1 15.1016C132.6 16.5016 132.5 18.0016 132.7 19.5016C132.8 20.5016 133 21.4016 133.4 22.3016C133.9 23.4016 134.3 24.6016 135 25.6016C136 27.0016 137.4 27.8016 138.8 28.5016C139.5 28.9016 140.2 29.2016 140.9 29.5016C141.9 29.9016 143.1 29.9016 144.2 30.0016C145.8 30.1016 147.5 30.1016 149.1 30.1016C150.1 30.1016 151 30.1016 152 30.0016C152.4 30.0016 152.9 30.0016 153.3 30.2016C153.6 30.3016 154.1 30.4016 154.4 30.1016C154.6 29.9016 154.8 30.0016 155.1 30.0016C157.2 30.0016 159.2 29.8016 161.2 29.1016C161.6 29.0016 161.9 28.7016 162.4 28.8016" stroke="#96192B" stroke-width="0.75" stroke-miterlimit="10" stroke-linecap="round" stroke-linejoin="round"/>
<path d="M169.101 25.4C169.901 25.1 170.201 24.4 170.301 23.6C170.401 23 170.501 22.3 171.001 21.9C171.201 21.8 171.201 21.5 171.301 21.2C171.701 20.1 172.301 19.1 172.601 18C173.201 16 173.001 14.2 171.901 12.4C170.901 10.6 169.301 9.6 167.601 8.5C167.201 8.3 166.801 8.1 166.501 7.7C165.001 6.2 163.201 5.5 161.201 5C159.601 4.6 158.101 4.4 156.501 4.2C154.801 3.9 153.101 3.8 151.401 3.8C149.101 3.9 146.801 3.9 144.501 4.1C142.101 4.3 139.801 4.7 137.501 5.7C136.801 6 136.101 5.9 135.401 5.8C135.101 5.8 134.801 5.8 134.401 5.7C133.701 5.5 133.501 4.8 133.001 4.4C132.401 3.7 131.801 3.1 130.901 2.9C130.301 2.8 129.801 2.3 129.501 1.7C129.401 1.4 129.301 1.1 128.901 1C128.601 1.2 128.401 1.4 128.401 1.8C128.301 2.4 128.101 2.3 127.601 2.2C127.401 2.1 127.201 1.9 126.901 1.9C126.401 2.3 126.701 2.7 126.801 3.2C126.901 3.4 127.101 3.5 127.201 3.7C127.701 4.7 127.301 5.4 126.601 6.1C125.701 6.9 124.901 7.7 124.301 8.8C124.101 9.1 123.801 9.3 123.601 9.6C123.201 10 122.701 10.3 122.401 10.8C121.801 11.5 121.801 11.9 122.301 12.7C123.101 13.9 124.101 14.5 125.601 14.7C126.601 14.8 127.601 14.9 128.501 15.1C129.401 15.2 130.101 16.1 130.101 17C130.101 17.4 130.101 17.8 130.101 18.2C130.101 20.6 130.401 22.9 131.201 25.2C131.601 26.5 132.401 27.7 133.101 29C133.401 29.5 133.401 30 133.101 30.6C132.501 31.7 132.801 33.5 133.801 34.3C134.401 34.8 135.101 34.8 135.801 34.8C137.001 34.8 138.201 35 139.401 34.6C139.801 34.4 140.301 34.6 140.801 34.7C141.601 34.9 142.301 34.9 143.001 34.4C143.701 33.9 144.501 33.9 145.301 33.7C145.601 33.6 145.801 33.5 146.001 33.4" stroke="#96192B" stroke-width="0.75" stroke-miterlimit="10" stroke-linecap="round" stroke-linejoin="round"/>
<path d="M171.001 22C171.301 23.6 171.101 25.1 170.201 26.3C169.101 27.8 168.001 29.4 166.201 30.2C165.701 30.4 165.401 31.1 165.101 31.6C164.701 32.4 164.301 33.1 163.601 33.7C162.801 34.3 162.001 34.3 161.101 34.2C159.601 34 158.101 33.4 156.601 33C155.801 32.8 154.901 32.9 154.301 33.5C153.401 34.3 152.401 34.1 151.401 33.7C150.801 33.5 150.301 33 149.801 32.7" stroke="#96192B" stroke-width="0.75" stroke-miterlimit="10" stroke-linecap="round" stroke-linejoin="round"/>
<path d="M168.701 13.1016C169.601 13.4016 170.101 14.1016 170.301 14.9016C170.601 16.0016 170.501 17.2016 170.301 18.4016C170.301 18.6016 170.201 18.9016 169.901 18.9016C169.601 18.9016 169.601 18.6016 169.601 18.4016C169.701 16.9016 169.301 15.5016 168.701 14.2016C168.601 14.0016 168.301 13.6016 168.601 13.3016" stroke="#96192B" stroke-width="0.75" stroke-miterlimit="10" stroke-linecap="round" stroke-linejoin="round"/>
<path d="M167.2 24.8984C166.6 25.7984 166.8 26.6984 167.7 27.1984C167.8 27.2984 167.9 27.2984 168 27.2984C168.4 27.2984 169.2 26.5984 169.2 26.0984C169.3 25.6984 169.1 25.3984 168.5 25.3984" stroke="#96192B" stroke-width="0.75" stroke-miterlimit="10" stroke-linecap="round" stroke-linejoin="round"/>
<path d="M133.101 10.6016C132.701 12.1016 132.001 13.2016 130.401 13.6016C130.301 13.6016 130.301 13.8016 130.201 13.9016" stroke="#96192B" stroke-width="0.75" stroke-miterlimit="10" stroke-linecap="round" stroke-linejoin="round"/>
<path d="M169.7 20.1992C169.2 21.3992 168.7 22.4992 167.9 23.4992C167.6 23.8992 167.7 24.3992 167.5 24.6992" stroke="#96192B" stroke-width="0.75" stroke-miterlimit="10" stroke-linecap="round" stroke-linejoin="round"/>
<path d="M135.901 28.5C135.601 29 135.101 29.1 134.701 29.4C133.801 30.1 133.601 30.9 133.801 31.9" stroke="#96192B" stroke-width="0.75" stroke-miterlimit="10" stroke-linecap="round" stroke-linejoin="round"/>
<path d="M153.2 30.5C152 31 150.9 31.8 149.9 32.7C149.8 32.8 149.7 32.8 149.6 32.8C148.7 32.8 147.9 33.3 146.9 33.3C146.5 33.3 146.2 33.2 145.9 32.9C145.2 32.3 144.4 31.7 143.8 31C143.5 30.7 143.3 30.8 143 30.9" stroke="#96192B" stroke-width="0.75" stroke-miterlimit="10" stroke-linecap="round" stroke-linejoin="round"/>
<path d="M130.3 9.10156C130 9.60156 129.5 9.60156 129.1 9.60156C128.3 9.60156 127.8 9.90156 127.5 10.7016" stroke="#96192B" stroke-width="0.75" stroke-miterlimit="10" stroke-linecap="round" stroke-linejoin="round"/>
<path d="M135.201 7.19922C135.001 7.59922 134.801 8.09922 134.501 8.39922C134.101 8.79922 133.701 8.89922 133.201 8.99922" stroke="#96192B" stroke-width="0.75" stroke-miterlimit="10" stroke-linecap="round" stroke-linejoin="round"/>
<path d="M140.7 30.8008C139.7 31.5008 138.7 32.1008 137.4 32.2008" stroke="#96192B" stroke-width="0.75" stroke-miterlimit="10" stroke-linecap="round" stroke-linejoin="round"/>
<path d="M139.9 31.5C140.3 32.2 140.2 32.2 141 32C141.2 31.9 141.4 31.8 141.7 31.9" stroke="#96192B" stroke-width="0.75" stroke-miterlimit="10" stroke-linecap="round" stroke-linejoin="round"/>
<path d="M134.002 6.60156C133.302 6.90156 132.602 7.30156 132.102 7.90156" stroke="#96192B" stroke-width="0.75" stroke-miterlimit="10" stroke-linecap="round" stroke-linejoin="round"/>
<path d="M129.8 6.89844C129.1 6.89844 128.5 7.09844 127.9 7.49844" stroke="#96192B" stroke-width="0.75" stroke-miterlimit="10" stroke-linecap="round" stroke-linejoin="round"/>
<path d="M129.301 2.39844C129.601 3.09844 130.001 3.69844 130.701 4.09844" stroke="#96192B" stroke-width="0.75" stroke-miterlimit="10" stroke-linecap="round" stroke-linejoin="round"/>
<path d="M125.401 13.3008C124.801 13.5008 124.201 13.6008 123.801 14.1008" stroke="#96192B" stroke-width="0.75" stroke-miterlimit="10" stroke-linecap="round" stroke-linejoin="round"/>
<path d="M163.101 31.8009C162.601 31.7009 162.201 32.1009 161.701 32.3009" stroke="#96192B" stroke-width="0.75" stroke-miterlimit="10" stroke-linecap="round" stroke-linejoin="round"/>
<path d="M144.701 32.4992C144.201 32.3992 143.701 32.1992 143.201 32.1992" stroke="#96192B" stroke-width="0.75" stroke-miterlimit="10" stroke-linecap="round" stroke-linejoin="round"/>
<path d="M168.5 24.3984C168.5 24.6984 168.4 24.9984 168.4 25.2984C168.5 25.7984 168.2 25.6984 167.9 25.6984" stroke="#96192B" stroke-width="0.75" stroke-miterlimit="10" stroke-linecap="round" stroke-linejoin="round"/>
<path d="M125.602 9.60156C125.102 9.60156 125.002 10.1016 124.602 10.3016" stroke="#96192B" stroke-width="0.75" stroke-miterlimit="10" stroke-linecap="round" stroke-linejoin="round"/>
<path d="M136.5 30.1992C136.8 30.2992 136.9 30.7992 137.3 30.6992" stroke="#96192B" stroke-width="0.75" stroke-miterlimit="10" stroke-linecap="round" stroke-linejoin="round"/>
<path d="M129.001 8.19922C128.701 8.29922 128.501 8.39922 128.201 8.49922" stroke="#96192B" stroke-width="0.75" stroke-miterlimit="10" stroke-linecap="round" stroke-linejoin="round"/>
<path d="M127.301 3.5008C127.401 3.4008 127.501 3.3008 127.601 3.4008C127.801 3.6008 128.001 3.9008 128.301 3.9008" stroke="#96192B" stroke-width="0.75" stroke-miterlimit="10" stroke-linecap="round" stroke-linejoin="round"/>
<path d="M25.9 2.90234C27.3 3.20234 28.7 3.50234 30.1 3.90234C33.1 4.80234 35.3 6.60234 35.8 9.90234C36.3 13.3023 34.2 15.1023 31.4 16.4023C31.2 16.5023 31 16.7023 30.6 17.0023C31.7 17.6023 32.6 18.1023 33.5 18.6023C38.4 21.7023 38.4 28.0023 33.2 30.7023C31.3 31.7023 28.9 32.4023 26.8 32.4023C18 32.6023 9.2 32.5023 0.2 32.5023C0.2 30.6023 0.2 28.5023 0.2 26.2023C2.4 26.3023 2.9 25.0023 2.8 22.9023C2.6 19.6023 2.7 16.2023 2.8 12.9023C2.9 10.9023 2.4 9.70234 0 9.90234C0 7.40234 0 5.20234 0 2.90234C8.6 2.90234 17.3 2.90234 25.9 2.90234ZM15.4 26.6023C17.6 26.4023 19.6 26.5023 21.4 25.9023C22.3 25.6023 23.4 24.1023 23.4 23.2023C23.3 22.3023 22.1 20.9023 21.2 20.7023C19.4 20.3023 17.4 20.6023 15.4 20.6023C15.4 22.6023 15.4 24.3023 15.4 26.6023ZM14.9 9.60234C15.4 11.7023 15.5 14.7023 16.2 14.8023C18.1 15.2023 20.3 14.5023 22.3 13.9023C22.7 13.8023 23.1 11.7023 22.6 11.1023C20.8 8.60234 18.2 9.50234 14.9 9.60234Z" fill="#96192B"/>
<path d="M72.9992 2.90234C73.3992 4.10234 73.7992 5.30234 74.1992 6.50234C84.0992 17.0023 76.9992 30.5023 66.2992 32.4023C62.0992 33.2023 57.5992 32.5023 53.1992 32.3023C51.6992 32.2023 50.1992 30.6023 48.6992 32.6023C48.4992 32.9023 46.5992 31.9023 46.1992 31.7023C45.8992 29.9023 46.0992 28.4023 45.4992 27.7023C38.7992 19.7023 41.3992 8.50234 50.9992 4.20234C51.8992 3.80234 52.6992 3.40234 53.5992 2.90234C60.0992 2.90234 66.4992 2.90234 72.9992 2.90234ZM64.7992 16.9023C64.4992 16.8023 64.1992 16.7023 63.7992 16.6023C61.8992 18.6023 59.9992 20.5023 58.1992 22.6023C57.5992 23.2023 56.8992 24.6023 57.1992 25.0023C57.7992 25.8023 59.0992 26.6023 59.7992 26.4023C61.1992 26.0023 63.0992 25.1023 63.5992 23.9023C64.4992 21.8023 64.4992 19.3023 64.7992 16.9023ZM56.4992 18.7023C58.7992 16.2023 61.0992 13.7023 63.3992 11.1023C63.2992 10.8023 63.2992 10.4023 63.1992 10.1023C61.5992 10.0023 59.6992 9.20234 58.4992 9.80234C55.0992 11.6023 56.0992 15.2023 56.4992 18.7023Z" fill="#96192B"/>
<path d="M114.8 2.90234C114.8 6.00234 114.8 9.20234 114.8 12.5023C111.9 12.5023 109.2 12.5023 106.2 12.5023C106.1 11.7023 105.9 10.9023 105.7 10.1023C103.3 10.1023 101 10.1023 98.6004 10.1023C98.6004 11.6023 98.6004 13.1023 98.6004 14.7023C100.4 14.7023 102 14.7023 103.9 14.7023C103.9 16.7023 103.9 18.5023 103.9 20.3023C102.1 20.7023 100.1 20.7023 98.7004 21.5023C98.1004 21.9023 98.5004 24.0023 98.4004 25.5023C99.8004 25.7023 100.9 25.8023 102.2 26.0023C102.2 28.2023 102.2 30.3023 102.2 32.6023C95.7004 32.6023 89.3004 32.6023 82.6004 32.6023C82.6004 30.5023 82.6004 28.4023 82.6004 26.1023C83.5004 25.9023 84.5004 25.7023 85.7004 25.5023C85.7004 20.4023 85.7004 15.4023 85.7004 10.2023C84.7004 10.1023 83.8004 9.90234 82.4004 9.70234C82.4004 7.50234 82.4004 5.20234 82.4004 2.90234C93.2004 2.90234 104 2.90234 114.8 2.90234Z" fill="#96192B"/>
<path d="M152.4 11.5C152.4 12.2 152.4 13 152.4 13.7C150.6 14.4 150.5 14.8 151.9 16.3C152.3 16.7 152.7 17.1 153.2 17.7C153.5 17.3 153.9 17 154 16.6C154.5 15.1 155.6 14.8 157 15C157.4 15.1 157.8 15 158.3 15C158.3 16.1 158.3 17.1 158.3 18.2C156.6 17.7 156.2 19.1 155.4 20C155.8 21.6 157.1 21.1 158.2 21.3C158.2 22.2 158.2 23.1 158.2 24.2C156 23.8 153.6 24.9 151.4 23.3C149.5 24.6 147.2 24.2 145 24.1C143.6 24 142.5 23.2 142.1 21.8C141.7 20.5 141.9 19.1 143 18.2C143.9 17.4 144.9 16.9 146 16.2C145.9 15.9 145.8 15.5 145.7 15C145.3 13.3 146.4 12.4 147.7 11.6C149.2 11.5 150.8 11.5 152.4 11.5ZM147.5 18.5C147.3 18.5 147.2 18.4 147 18.4C146.7 19 146.2 19.7 146.2 20.3C146.3 20.9 146.9 21.6 147.4 21.9C148.2 22.3 149.1 22 149.8 21.2C149.1 20.3 148.3 19.4 147.5 18.5Z" fill="#96192B"/>
<path d="M277 2.7C276.9 4.8 276.8 7 276.7 9.4C276 9.6 275.2 9.8 274.1 10.1C274.1 17.4 274.1 24.8 274.1 32.7C270.5 32.7 267.1 32.8 263.7 32.6C262.9 32.6 262.1 31.6 261.5 30.9C258.1 26.6 254.8 22.2 251.5 17.8C250.9 17.1 250.3 16.4 249.1 15C249.1 18.7 249 21.6 249.2 24.4C249.3 25 250.6 25.5 251.8 26.3C251.8 27.9 251.8 30 251.8 32.3C247.5 32.3 243.3 32.3 238.8 32.3C238.8 30.2 238.8 28.1 238.8 25.8C241.2 25.9 241.7 24.6 241.6 22.4C241.4 18.3 241.5 14.2 241.5 10C240.4 9.8 239.6 9.6 238.6 9.4C238.6 7.1 238.6 4.8 238.6 2.6C243.9 2.6 249.2 2.6 254.5 2.6C258 7.4 261.4 12.1 264.9 16.9C265.1 17.2 265.6 17.4 265.9 17.6C265.3 14.6 268.4 10.6 263.6 8.9C263.5 6.8 263.4 4.6 263.3 2.5C267.9 2.7 272.5 2.7 277 2.7Z" fill="#96192B"/>
<path d="M214.5 2.69922C214.4 4.89922 214.3 7.19922 214.2 9.39922C214 9.29922 213.8 9.09922 213.6 8.99922C212.7 10.0992 211.4 11.1992 210.8 12.4992C208.1 18.4992 205.5 24.4992 203 30.5992C202.4 32.1992 201.5 32.5992 199.8 32.7992C193.7 33.6992 190.1 31.7992 188.2 25.5992C186.9 20.9992 184.4 16.7992 182.3 12.4992C181.7 11.1992 180.4 10.1992 179.4 9.09922C179.2 9.19922 179 9.39922 178.8 9.49922C178.7 7.29922 178.6 4.99922 178.5 2.79922C184.4 2.79922 190.3 2.79922 196.2 2.79922C195.8 5.49922 198.3 8.99922 193.7 10.4992C195.2 14.4992 196.7 18.2992 198.5 22.9992C200.4 18.1992 202 14.2992 203.6 10.2992C202.6 9.99922 201.8 9.69922 201.2 9.49922C201.1 7.09922 201 4.89922 200.9 2.79922C205.5 2.69922 210 2.69922 214.5 2.69922Z" fill="#96192B"/>
<path d="M235.2 2.69922C235.2 4.89922 235.2 6.99922 235.2 9.29922C234.2 9.59922 233.3 9.79922 232.3 10.0992C232.3 15.1992 232.3 20.1992 232.3 25.4992C233.2 25.5992 234 25.6992 235 25.8992C235 28.1992 235 30.2992 235 32.4992C228.8 32.4992 222.8 32.4992 216.6 32.4992C216.6 30.2992 216.6 28.1992 216.6 25.8992C217.4 25.7992 218.2 25.5992 219.3 25.3992C219.3 20.3992 219.3 15.2992 219.3 10.0992C218.5 9.89922 217.6 9.69922 216.4 9.39922C216.4 7.09922 216.4 4.89922 216.4 2.69922C222.6 2.69922 228.9 2.69922 235.2 2.69922Z" fill="#96192B"/>
</svg>
