<svg width="51" height="50" viewBox="0 0 51 50" fill="none" xmlns="http://www.w3.org/2000/svg">
<path d="M7.65822 9.75C5.99025 9.75 4.3906 10.4085 3.21117 11.5806C2.03174 12.7527 1.36914 14.3424 1.36914 16C1.36914 33.95 16.0101 48.5 34.0724 48.5C35.7403 48.5 37.34 47.8415 38.5194 46.6694C39.6989 45.4973 40.3615 43.9076 40.3615 42.25C40.3615 40.5924 39.6989 39.0027 38.5194 37.8306C37.34 36.6585 35.7403 36 34.0724 36C28.7349 36 23.616 33.8929 19.8418 30.1421C16.0676 26.3914 13.9473 21.3043 13.9473 16C13.9473 14.3424 13.2847 12.7527 12.1053 11.5806C10.9258 10.4085 9.32619 9.75 7.65822 9.75Z" fill="white" fill-opacity="0.77" stroke="white" stroke-width="2" stroke-linecap="round" stroke-linejoin="round"/>
<path d="M6.89014 9.79749L3.76324 4.82499C3.52524 4.44657 3.39351 4.01172 3.38173 3.56562C3.36994 3.11951 3.47853 2.6784 3.69621 2.28808C3.9139 1.89776 4.23274 1.57246 4.61965 1.34595C5.00656 1.11945 5.44743 0.999999 5.89648 1H9.3982C9.84725 0.999999 10.2881 1.11945 10.675 1.34595C11.0619 1.57246 11.3808 1.89776 11.5985 2.28808C11.8162 2.6784 11.9247 3.11951 11.913 3.56562C11.9012 4.01172 11.7694 4.44657 11.5314 4.82499L8.39951 9.79999" fill="white" fill-opacity="0.77"/>
<path d="M6.89014 9.79749L3.76324 4.82499C3.52524 4.44657 3.39351 4.01172 3.38173 3.56562C3.36994 3.11951 3.47853 2.6784 3.69621 2.28808C3.9139 1.89776 4.23274 1.57246 4.61965 1.34595C5.00656 1.11945 5.44743 0.999999 5.89648 1H9.3982C9.84725 0.999999 10.2881 1.11945 10.675 1.34595C11.0619 1.57246 11.3808 1.89776 11.5985 2.28808C11.8162 2.6784 11.9247 3.11951 11.913 3.56562C11.9012 4.01172 11.7694 4.44657 11.5314 4.82499L8.39951 9.79999" stroke="white" stroke-width="2" stroke-linecap="round" stroke-linejoin="round"/>
<path d="M40.3156 41.5617L45.3192 38.4542C45.7 38.2177 46.1375 38.0868 46.5864 38.0751C47.0353 38.0634 47.4792 38.1713 47.872 38.3876C48.2647 38.6039 48.5921 38.9208 48.82 39.3053C49.0479 39.6898 49.1681 40.128 49.1681 40.5742V44.0542C49.1681 44.5005 49.0479 44.9386 48.82 45.3231C48.5921 45.7076 48.2647 46.0245 47.872 46.2408C47.4792 46.4571 47.0353 46.5651 46.5864 46.5533C46.1375 46.5416 45.7 46.4107 45.3192 46.1742L40.3105 43.0617" fill="white" fill-opacity="0.77"/>
<path d="M40.3156 41.5617L45.3192 38.4542C45.7 38.2177 46.1375 38.0868 46.5864 38.0751C47.0353 38.0634 47.4792 38.1713 47.872 38.3876C48.2647 38.6039 48.5921 38.9208 48.82 39.3053C49.0479 39.6898 49.1681 40.128 49.1681 40.5742V44.0542C49.1681 44.5005 49.0479 44.9386 48.82 45.3231C48.5921 45.7076 48.2647 46.0245 47.872 46.2408C47.4792 46.4571 47.0353 46.5651 46.5864 46.5533C46.1375 46.5416 45.7 46.4107 45.3192 46.1742L40.3105 43.0617" stroke="white" stroke-width="2" stroke-linecap="round" stroke-linejoin="round"/>
</svg>
