<svg width="48" height="55" viewBox="0 0 48 55" fill="none" xmlns="http://www.w3.org/2000/svg">
<path d="M24.0871 0C19.0973 0 14.8481 3.16938 13.2373 7.59229C8.79372 9.185 5.57211 13.3833 5.57211 18.3333C5.57211 18.4777 5.56285 18.6198 5.57211 18.7642C2.89669 19.7198 0.943359 22.2452 0.943359 25.2083C0.943359 28.9781 4.07934 32.0833 7.88648 32.0833H8.75437L18.7363 51.5625C18.7525 51.5992 18.7895 51.5992 18.8057 51.6335C19.787 53.6663 21.8121 55 24.0871 55C26.3621 55 28.3918 53.6663 29.3662 51.6335H29.4402C29.4472 51.6152 29.431 51.5808 29.4402 51.5625L39.4198 32.0833H40.2877C44.0949 32.0833 47.2308 28.9781 47.2308 25.2083C47.2308 22.1994 45.1965 19.6854 42.4563 18.7619C42.1299 16.866 41.3306 15.0808 40.1311 13.5681C38.9317 12.0554 37.3698 10.8631 35.5872 10.0994C34.8906 4.43667 29.9818 0 24.0871 0ZM24.0871 4.58333C27.1421 4.58333 29.7295 6.48083 30.6692 9.16667C25.2628 9.33625 20.7336 13.239 19.6759 18.3333H10.2009C10.2009 14.5475 13.3206 11.4583 17.144 11.4583C17.7851 11.4583 18.4285 11.5844 19.0256 11.7448C20.0439 10.4019 21.2312 9.17583 22.6406 8.23625C21.4456 7.6095 20.1481 7.19676 18.808 7.01708C19.4536 6.25258 20.2612 5.6382 21.1736 5.21758C22.086 4.79696 23.0807 4.58042 24.0871 4.58333ZM31.0302 13.75C34.0852 13.75 36.6727 15.6475 37.6123 18.3333H24.4481C24.9264 16.9857 25.8178 15.8195 26.9978 14.9978C28.1779 14.1761 29.5876 13.7399 31.0302 13.75ZM7.88648 22.9167H40.2877C41.5976 22.9167 42.6021 23.9113 42.6021 25.2083C42.6021 26.5054 41.5976 27.5 40.2877 27.5H16.2761L18.6622 32.0833H34.2125L25.316 49.5573L25.2443 49.6283V49.7017C25.1438 49.9203 24.9804 50.1048 24.7746 50.2319C24.5687 50.3591 24.3296 50.4234 24.0871 50.4167C23.8443 50.4232 23.605 50.3586 23.3992 50.231C23.1933 50.1034 23.0301 49.9185 22.9299 49.6994V49.6306L22.8582 49.5573L12.2977 28.7879L11.6473 27.5H7.88648C6.57655 27.5 5.57211 26.5054 5.57211 25.2083C5.57211 23.9113 6.57655 22.9167 7.88648 22.9167Z" fill="white"/>
</svg>
