<svg width="29" height="29" viewBox="0 0 29 29" fill="none" xmlns="http://www.w3.org/2000/svg">
<path d="M12.61 10.0587V12.0553H11.1484V14.4956H12.61V21.75H15.6144V14.4956H17.6299C17.6299 14.4956 17.8199 13.3255 17.9112 12.0452H15.626V10.3776C15.626 10.1268 15.9537 9.79185 16.2785 9.79185H17.9141V7.25H15.6884C12.5361 7.25 12.61 9.69325 12.61 10.0587Z" fill="white"/>
<path d="M5.8 2.9C5.03087 2.9 4.29325 3.20553 3.74939 3.74939C3.20553 4.29325 2.9 5.03087 2.9 5.8V23.2C2.9 23.9691 3.20553 24.7068 3.74939 25.2506C4.29325 25.7945 5.03087 26.1 5.8 26.1H23.2C23.9691 26.1 24.7068 25.7945 25.2506 25.2506C25.7945 24.7068 26.1 23.9691 26.1 23.2V5.8C26.1 5.03087 25.7945 4.29325 25.2506 3.74939C24.7068 3.20553 23.9691 2.9 23.2 2.9H5.8ZM5.8 0H23.2C24.7383 0 26.2135 0.61107 27.3012 1.69878C28.3889 2.78649 29 4.26174 29 5.8V23.2C29 24.7383 28.3889 26.2135 27.3012 27.3012C26.2135 28.3889 24.7383 29 23.2 29H5.8C4.26174 29 2.78649 28.3889 1.69878 27.3012C0.61107 26.2135 0 24.7383 0 23.2V5.8C0 4.26174 0.61107 2.78649 1.69878 1.69878C2.78649 0.61107 4.26174 0 5.8 0V0Z" fill="white"/>
</svg>
