<svg width="41" height="41" viewBox="0 0 41 41" fill="none" xmlns="http://www.w3.org/2000/svg">
<path fill-rule="evenodd" clip-rule="evenodd" d="M20.3791 0C9.21367 0 0.164062 9.05129 0.164062 20.2151C0.164062 31.3788 9.21367 40.4301 20.3791 40.4301C31.5429 40.4301 40.5942 31.3788 40.5942 20.2151C40.5942 9.05129 31.5429 0 20.3791 0ZM20.615 32.0375C14.099 32.0375 8.82284 26.7479 8.82284 20.2151C8.82284 13.6822 14.099 8.39262 20.615 8.39262C23.7988 8.39262 26.4605 9.56677 28.5022 11.4737L25.1768 14.8058V14.7991C23.9387 13.6165 22.3686 13.0101 20.615 13.0101C16.7236 13.0101 13.5616 16.3051 13.5616 20.2083C13.5616 24.1081 16.7236 27.4133 20.615 27.4133C24.1459 27.4133 26.5481 25.3884 27.0433 22.6089H20.615V17.9981H31.708C31.8562 18.7899 31.9354 19.6153 31.9354 20.4812C31.9354 27.2364 27.4257 32.0375 20.615 32.0375Z" fill="white"/>
</svg>
