<svg width="35" height="33" viewBox="0 0 35 33" fill="none" xmlns="http://www.w3.org/2000/svg">
<path d="M17.5 0C7.83504 0 0 7.38732 0 16.5C0 25.6127 7.83504 33 17.5 33C27.165 33 35 25.6127 35 16.5C35 7.38732 27.165 0 17.5 0ZM28.2244 26.6116C25.5652 29.1114 22.0141 30.5882 18.2631 30.7542C14.5121 30.9202 10.8299 29.7636 7.93401 27.5097C5.03809 25.2558 3.1359 22.066 2.59808 18.562C2.06027 15.0579 2.92535 11.4906 5.02477 8.55509C7.12419 5.61958 10.3076 3.52618 13.9546 2.68278C17.6016 1.83938 21.451 2.30641 24.7528 3.99286C28.0546 5.67931 30.5721 8.46438 31.815 11.8054C33.0578 15.1464 32.9369 18.804 31.4757 22.0655C30.7142 23.765 29.61 25.3089 28.2244 26.6116Z" fill="white"/>
<path d="M9.9375 12.625H12.9622V15.4769H9.9375V12.625Z" fill="white"/>
<path d="M22.0352 12.625H25.0598V15.4769H22.0352V12.625Z" fill="white"/>
<path d="M23.3076 20.1683C22.8544 21.1806 22.0672 22.0486 21.0487 22.659C20.0301 23.2694 18.8275 23.5941 17.5974 23.5906H16.9678C15.7377 23.5941 14.535 23.2695 13.5164 22.6591C12.4978 22.0486 11.7106 21.1807 11.2574 20.1683L11.1638 19.9609H8.64062L9.08227 20.9384C9.71267 22.3335 10.8008 23.5295 12.2064 24.3719C13.6119 25.2143 15.2704 25.6646 16.9678 25.6646H17.5974C19.2948 25.6646 20.9533 25.2143 22.3588 24.3719C23.7644 23.5295 24.8525 22.3335 25.4829 20.9384L25.9246 19.9609H23.4012L23.3076 20.1683Z" fill="white"/>
</svg>
