<svg width="61" height="60" viewBox="0 0 61 60" fill="none" xmlns="http://www.w3.org/2000/svg">
<path d="M57.0816 57.0483C55.5546 58.6047 53.4696 59.5289 50.8268 59.8207C48.1839 60.1125 45.2376 59.6845 41.9878 58.5366C38.7381 57.3888 35.5862 55.5892 32.5322 53.1378C31.0052 51.8927 29.2629 50.9394 27.3052 50.2779C25.3475 49.6164 23.4779 49.1981 21.6964 49.023C19.9149 48.8479 18.1628 48.6923 16.44 48.5561C14.7173 48.4199 13.1022 48.1281 11.5948 47.6806C10.0874 47.2331 8.88338 46.5425 7.98285 45.6086C4.85055 42.4569 2.68731 38.4588 1.49313 33.6145C0.298939 28.7701 0.23042 23.9257 1.28757 19.0814C2.34472 14.237 4.43944 10.239 7.57174 7.0872C10.704 3.93545 14.6683 1.82455 19.4647 0.754515C24.261 -0.315525 29.0573 -0.247431 33.8536 0.958795C38.65 2.16502 42.6143 4.36347 45.7466 7.55413C47.6651 9.46074 49.5934 12.0872 51.5315 15.4335C53.4696 18.7798 55.1728 22.4374 56.6411 26.4063C58.1094 30.3752 59.235 34.3051 60.0181 38.1962C60.8012 42.0872 60.9676 45.7351 60.5173 49.1398C60.067 52.5444 58.9218 55.1806 57.0816 57.0483ZM43.8085 11.2312C41.6159 9.01327 39.0415 7.24285 36.0854 5.91989C33.1293 4.59693 30.0655 3.87708 26.8941 3.76035C23.8401 3.68253 20.8448 4.18837 17.9083 5.27786C14.9718 6.36736 12.4855 7.92378 10.4495 9.94713C6.10347 14.344 4.06748 19.7526 4.34156 26.1728C4.41986 28.8187 4.90929 31.5522 5.80982 34.3732C6.71036 37.1942 7.74793 39.6553 8.92254 41.7565C9.50984 42.7682 10.5474 43.5075 12.0353 43.9744C13.5231 44.4413 15.2361 44.7331 17.1742 44.8499C19.1123 44.9666 21.0993 45.0833 23.1353 45.2001C25.1713 45.3168 27.2269 45.6475 29.302 46.1923C31.3772 46.737 33.0804 47.5541 34.4116 48.6436C37.1915 50.9005 39.7854 52.6125 42.1934 53.7798C44.6013 54.9472 46.8037 55.56 48.8006 55.6184C50.7974 55.6767 52.4614 55.025 53.7927 53.6631C55.398 52.0289 56.3964 49.7526 56.7879 46.8343C57.1795 43.916 57.0228 40.7934 56.3181 37.4666C55.6133 34.1397 54.6247 30.7837 53.3522 27.3985C52.0797 24.0133 50.5919 20.9004 48.8887 18.06C47.1855 15.2195 45.4921 12.9432 43.8085 11.2312ZM34.4116 44.9082C33.0021 43.7409 31.0639 42.8654 28.5973 42.2818C26.1306 41.6981 23.8107 41.3577 21.6377 41.2604C19.4647 41.1631 17.4189 40.9685 15.5004 40.6767C13.5818 40.3849 12.3681 39.9082 11.8591 39.2468C9.549 36.3674 8.29608 32.2429 8.10031 26.8732C7.86539 21.3479 9.60773 16.6786 13.3273 12.8654C15.0501 11.1144 17.1742 9.7623 19.6996 8.80899C22.225 7.85569 24.7994 7.41794 27.4227 7.49576C30.1243 7.57358 32.7476 8.19615 35.2925 9.36347C37.8375 10.5308 40.0497 12.0677 41.9291 13.9744C44.709 16.7759 47.2834 21.1728 49.6522 27.165C52.021 33.1573 53.2054 38.4491 53.2054 43.0405C53.2054 44.9471 53.0977 46.4549 52.8823 47.5639C52.667 48.6728 52.1482 49.6553 51.326 50.5113C48.3503 53.5075 42.7122 51.6398 34.4116 44.9082ZM21.2559 14.9666C19.6898 14.9666 18.3586 15.5211 17.2623 16.63C16.166 17.739 15.6178 19.0619 15.6178 20.5989C15.6178 22.1358 16.166 23.4491 17.2623 24.5386C18.3586 25.6281 19.6898 26.1728 21.2559 26.1728C22.8221 26.1728 24.1533 25.6281 25.2496 24.5386C26.3459 23.4491 26.8941 22.1358 26.8941 20.5989C26.8941 19.0619 26.3459 17.739 25.2496 16.63C24.1533 15.5211 22.8221 14.9666 21.2559 14.9666Z" fill="white"/>
</svg>
