<svg width="57" height="56" viewBox="0 0 57 56" fill="none" xmlns="http://www.w3.org/2000/svg">
<path d="M26.5739 28.8545C26.7231 28.207 27.0603 27.6173 27.5437 27.1585C27.6924 27.0119 27.8661 26.8927 28.0567 26.8064L28.0753 26.8017C28.6789 26.9042 29.2988 26.7665 29.8011 26.4185C30.3034 26.0705 30.6478 25.5401 30.7598 24.9419C30.8719 24.3437 30.7427 23.7256 30.4 23.2213C30.0574 22.717 29.5288 22.3669 28.9286 22.2466C27.0542 21.8528 25.3849 22.8166 24.359 23.7758C23.1753 24.8837 22.3562 26.3213 22.009 27.8999C21.8816 28.5015 21.9999 29.1288 22.3379 29.6437C22.6759 30.1585 23.2058 30.5189 23.8112 30.6455C24.4165 30.7721 25.0476 30.6545 25.5658 30.3186C26.0839 29.9828 26.4465 29.4561 26.5739 28.8545Z" fill="white"/>
<path d="M29.399 44.517C33.48 44.517 37.3938 42.9059 40.2795 40.0382C43.1652 37.1704 44.7863 33.2809 44.7863 29.2253C44.7863 25.1697 43.1652 21.2802 40.2795 18.4124C37.3938 15.5447 33.48 13.9336 29.399 13.9336C25.3181 13.9336 21.4042 15.5447 18.5186 18.4124C15.6329 21.2802 14.0117 25.1697 14.0117 29.2253C14.0117 33.2809 15.6329 37.1704 18.5186 40.0382C21.4042 42.9059 25.3181 44.517 29.399 44.517ZM29.399 39.8832C26.5547 39.8832 23.8269 38.7603 21.8157 36.7616C19.8044 34.7628 18.6745 32.052 18.6745 29.2253C18.6745 26.3987 19.8044 23.6878 21.8157 21.6891C23.8269 19.6903 26.5547 18.5674 29.399 18.5674C32.2433 18.5674 34.9712 19.6903 36.9824 21.6891C38.9936 23.6878 40.1235 26.3987 40.1235 29.2253C40.1235 32.052 38.9936 34.7628 36.9824 36.7616C34.9712 38.7603 32.2433 39.8832 29.399 39.8832Z" fill="white"/>
<path d="M33.6094 0.0501417C37.2744 0.286469 40.7342 1.37079 43.2335 2.93704C48.8382 6.45414 50.8945 9.67931 52.685 12.7794C54.4755 15.8887 56.35 19.8506 56.35 25.9812C56.35 28.8542 56.0283 30.2907 55.7625 31.4955L55.7159 31.7041C55.492 32.7003 55.3102 33.6086 55.5014 35.9394C55.7122 39.0839 55.1521 42.2323 53.8694 45.1144C52.6057 48.0013 50.6007 50.7029 47.887 52.3896C42.3708 55.8187 35.7123 56.5601 29.4688 54.081C26.6944 52.9781 25.8411 52.7603 24.9086 52.7001C24.1921 52.6739 23.4748 52.6816 22.759 52.7232H22.731C21.7425 52.7603 20.4556 52.8113 18.6744 52.8113C10.6077 52.8113 5.24544 48.006 2.52236 42.8021C-1.44571 35.2165 -1.37577 23.6643 7.43697 16.7459C10.0388 14.707 10.7336 14.0907 11.5449 12.7423C13.0044 10.328 14.4032 8.40963 16.1098 6.74607C17.8211 5.07788 19.7608 3.74333 22.2181 2.40414C25.8598 0.411584 29.9258 -0.190819 33.6094 0.0501417ZM33.3017 4.67474C30.3174 4.48011 27.1747 4.98057 24.4609 6.46341C22.2508 7.66821 20.6934 8.77107 19.3785 10.0546C18.0496 11.3429 16.8839 12.9045 15.5456 15.1241C14.24 17.2835 12.9018 18.3678 10.3233 20.3835C3.74402 25.5503 3.41762 34.4658 6.66294 40.6659C8.78919 44.7345 12.7573 48.1728 18.6744 48.1728C20.367 48.1728 21.584 48.1311 22.5632 48.094H22.6471C23.575 48.0569 24.4003 48.0245 25.1977 48.0755C26.9602 48.1867 28.4383 48.6825 31.1987 49.7807C36.0061 51.6899 41.1072 51.1338 45.4203 48.4601C47.1269 47.3943 48.5957 45.5408 49.5982 43.2609C50.5914 40.9903 51.0344 38.488 50.8572 36.3194C50.6194 33.4742 50.8572 32.0979 51.1603 30.7124L51.2116 30.4807C51.4447 29.4335 51.6872 28.3538 51.6872 25.9812C51.6872 20.9489 50.2044 17.7932 48.6377 15.087C47.071 12.3669 45.4809 9.82759 40.7435 6.85729C38.995 5.75906 36.3138 4.86936 33.3017 4.67474Z" fill="white"/>
</svg>
