<svg width="42" height="57" viewBox="0 0 42 57" fill="none" xmlns="http://www.w3.org/2000/svg">
<path d="M41.6132 17.2922C41.6132 6.60187 36.2285 0.001875 36.2276 0H5.49016C5.49016 0 0.105469 6.61125 0.105469 17.2922C0.105469 27.4434 8.83719 36.8728 19.8169 37.4381C19.6886 43.3331 19.1839 49.4719 17.7312 51.5981C15.685 54.5944 8.51362 53.055 8.51362 56.25H33.2079C33.2079 53.0541 26.0337 54.5944 23.9875 51.5981C22.5347 49.4719 22.0301 43.3341 21.9018 37.4381C32.8787 36.8737 41.6132 27.4434 41.6132 17.2922ZM20.8593 34.9256C11.6201 34.9256 4.0204 27.6309 3.03554 19.3088C2.96161 18.7049 2.92349 18.0973 2.92139 17.4891C2.92139 8.25469 7.57498 2.54156 7.57498 2.54156H34.1428C34.1437 2.54437 38.7143 8.15625 38.7907 17.2622C38.7916 17.3372 38.7973 17.4113 38.7973 17.4891C38.7973 26.5387 30.7665 34.9256 20.8593 34.9256Z" fill="white"/>
</svg>
