<svg width="41" height="41" viewBox="0 0 41 41" fill="none" xmlns="http://www.w3.org/2000/svg">
<path d="M26.1197 13.114C24.3583 12.3786 22.4686 12 20.5599 12C18.6511 12 16.7614 12.3786 15 13.114C16.5566 13.6334 17.9202 14.6106 18.9122 15.9178C19.9042 17.225 20.4785 18.8012 20.5599 20.4401C20.6466 18.8027 21.223 17.229 22.2142 15.9229C23.2055 14.6167 24.566 13.6382 26.1197 13.114Z" fill="white"/>
<path d="M13.0179 17C12.0246 17 11.0536 17.2948 10.228 17.8471C9.40238 18.3994 8.75924 19.1842 8.38004 20.1023C8.00084 21.0204 7.90265 22.0304 8.0979 23.0043C8.29315 23.9782 8.77306 24.8723 9.47684 25.5732C10.1806 26.2742 11.0766 26.7505 12.0513 26.9419C13.026 27.1332 14.0356 27.031 14.9521 26.6481C15.8687 26.2652 16.651 25.6189 17.1999 24.7911C17.7489 23.9633 18.0398 22.9911 18.0358 21.9979C18.0305 20.6705 17.4995 19.3993 16.559 18.4626C15.6185 17.5259 14.3453 17 13.0179 17ZM13.0179 24.6272C12.6546 24.6591 12.2887 24.615 11.9434 24.4978C11.5981 24.3806 11.281 24.1929 11.0121 23.9466C10.7433 23.7003 10.5286 23.4007 10.3817 23.0669C10.2348 22.7332 10.159 22.3725 10.159 22.0079C10.159 21.6432 10.2348 21.2826 10.3817 20.9488C10.5286 20.6151 10.7433 20.3155 11.0121 20.0692C11.281 19.8228 11.5981 19.6351 11.9434 19.518C12.2887 19.4008 12.6546 19.3567 13.0179 19.3885C13.3811 19.3567 13.747 19.4008 14.0923 19.518C14.4376 19.6351 14.7548 19.8228 15.0237 20.0692C15.2925 20.3155 15.5072 20.6151 15.6541 20.9488C15.8009 21.2826 15.8768 21.6432 15.8768 22.0079C15.8768 22.3725 15.8009 22.7332 15.6541 23.0669C15.5072 23.4007 15.2925 23.7003 15.0237 23.9466C14.7548 24.1929 14.4376 24.3806 14.0923 24.4978C13.747 24.615 13.3811 24.6591 13.0179 24.6272ZM27.8308 17C26.8375 17 25.8665 17.2948 25.0409 17.8471C24.2153 18.3994 23.5721 19.1842 23.1929 20.1023C22.8137 21.0204 22.7156 22.0304 22.9108 23.0043C23.1061 23.9782 23.586 24.8723 24.2897 25.5732C24.9935 26.2742 25.8895 26.7505 26.8642 26.9419C27.8389 27.1332 28.8485 27.031 29.765 26.6481C30.6816 26.2652 31.4639 25.6189 32.0128 24.7911C32.5618 23.9633 32.8527 22.9911 32.8487 21.9979C32.8434 20.6705 32.3124 19.3993 31.3719 18.4626C30.4315 17.5259 29.1582 17 27.8308 17ZM30.4602 21.9979C30.4642 22.5187 30.3133 23.0291 30.0268 23.4641C29.7403 23.8991 29.3311 24.2393 28.851 24.4414C28.3709 24.6435 27.8416 24.6984 27.3302 24.5992C26.8189 24.5 26.3485 24.2512 25.9787 23.8843C25.609 23.5174 25.3566 23.0489 25.2535 22.5383C25.1504 22.0277 25.2013 21.498 25.3997 21.0164C25.5981 20.5348 25.9351 20.1229 26.3679 19.8331C26.8007 19.5433 27.3099 19.3885 27.8308 19.3885C28.5247 19.3885 29.1905 19.6628 29.683 20.1516C30.1755 20.6403 30.4549 21.304 30.4602 21.9979Z" fill="white"/>
<path d="M20.0717 0C16.1019 0 12.2212 1.17718 8.92046 3.38269C5.61969 5.58819 3.04705 8.72296 1.52787 12.3906C0.00869679 16.0582 -0.38879 20.0939 0.385681 23.9875C1.16015 27.881 3.07179 31.4574 5.87887 34.2645C8.68594 37.0716 12.2624 38.9832 16.1559 39.7577C20.0494 40.5322 24.0852 40.1347 27.7528 38.6155C31.4204 37.0963 34.5552 34.5237 36.7607 31.2229C38.9662 27.9221 40.1434 24.0415 40.1434 20.0717C40.1434 17.4358 39.6242 14.8258 38.6155 12.3906C37.6068 9.95537 36.1283 7.74269 34.2645 5.87886C32.4007 4.01503 30.188 2.53656 27.7528 1.52787C25.3176 0.519169 22.7075 0 20.0717 0ZM34.8846 21.6172C34.8866 23.0594 34.4675 24.4708 33.6788 25.6782C32.8901 26.8856 31.766 27.8365 30.4445 28.4141C29.123 28.9917 27.6617 29.171 26.2398 28.9298C24.8179 28.6887 23.4973 28.0376 22.4402 27.0566L20.0717 29.6459L17.7032 27.0566C16.9863 27.7156 16.1466 28.2269 15.232 28.5613C14.3175 28.8958 13.346 29.0468 12.3731 29.0058C11.4002 28.9648 10.4448 28.7325 9.56167 28.3223C8.6785 27.9121 7.88478 27.332 7.22581 26.615C6.56685 25.8981 6.05556 25.0584 5.72112 24.1438C5.38668 23.2293 5.23565 22.2578 5.27666 21.2849C5.31766 20.312 5.5499 19.3567 5.9601 18.4735C6.3703 17.5903 6.95044 16.7966 7.66739 16.1376L5.25879 13.5283H10.638C13.4194 11.6246 16.7112 10.6059 20.0817 10.6059C23.4522 10.6059 26.7441 11.6246 29.5255 13.5283H34.8846L32.476 16.1577C33.2322 16.8525 33.8366 17.6961 34.2511 18.6356C34.6656 19.5752 34.8813 20.5903 34.8846 21.6172Z" fill="white"/>
</svg>
